<?xml version="1.0" encoding="UTF-8" standalone="no"?>
<svg
   xmlns:dc="http://purl.org/dc/elements/1.1/"
   xmlns:cc="http://creativecommons.org/ns#"
   xmlns:rdf="http://www.w3.org/1999/02/22-rdf-syntax-ns#"
   xmlns:svg="http://www.w3.org/2000/svg"
   xmlns="http://www.w3.org/2000/svg"
   xmlns:sodipodi="http://sodipodi.sourceforge.net/DTD/sodipodi-0.dtd"
   xmlns:inkscape="http://www.inkscape.org/namespaces/inkscape"
   id="Capa_1"
   enable-background="new 0 0 512 512"
   height="512"
   viewBox="0 0 512 512"
   width="512"
   version="1.1"
   sodipodi:docname="roundedBorder.svg"
   inkscape:version="1.0.2 (e86c870879, 2021-01-15)">
  <metadata
     id="metadata11">
    <rdf:RDF>
      <cc:Work
         rdf:about="">
        <dc:format>image/svg+xml</dc:format>
        <dc:type
           rdf:resource="http://purl.org/dc/dcmitype/StillImage" />
      </cc:Work>
    </rdf:RDF>
  </metadata>
  <defs
     id="defs9" />
  <sodipodi:namedview
     pagecolor="#ffffff"
     bordercolor="#666666"
     borderopacity="1"
     objecttolerance="10"
     gridtolerance="10"
     guidetolerance="10"
     inkscape:pageopacity="0"
     inkscape:pageshadow="2"
     inkscape:window-width="1920"
     inkscape:window-height="1002"
     id="namedview7"
     showgrid="false"
     inkscape:zoom="1.3964844"
     inkscape:cx="226.38775"
     inkscape:cy="50.931999"
     inkscape:window-x="1680"
     inkscape:window-y="0"
     inkscape:window-maximized="1"
     inkscape:current-layer="Capa_1"
     inkscape:document-rotation="0" />
  <path
     style="fill:#ffffff;fill-opacity:0.999991;stroke:none;stroke-width:1.0127;stroke-opacity:1"
     d="M 0.74147861,57.910649 0.62400451,1.4528703 55.56274,1.5026625 110.50148,1.5524535 101.38722,3.926094 C 71.967457,11.587927 46.774761,28.053028 28.471596,51.581302 14.427245,69.634971 7.2139627,85.770844 1.309039,112.34304 1.0614914,113.457 0.8060893,88.962428 0.74147861,57.910649 Z"
     id="path838" />
  <path
     style="fill:#ffffff;fill-opacity:0.999991;stroke:none;stroke-width:1.0127;stroke-opacity:1"
     d="M 508.65067,103.48195 C 503.76234,81.371717 491.63452,59.299817 474.63679,41.578704 456.77293,22.954597 435.6499,10.413498 411.2824,3.9641415 l -9.1246,-2.4150124 54.43239,-0.048129 54.43239,-0.048129 V 56.64478 c 0,30.35555 -0.11807,55.19191 -0.26238,55.19191 -0.14431,0 -1.09359,-3.75963 -2.10953,-8.35474 z"
     id="path840" />
  <path
     style="fill:#ffffff;fill-opacity:0.999991;stroke:none;stroke-width:1.0127;stroke-opacity:1"
     d="m 406.42112,509.25672 c 50.54812,-11.08163 92.11551,-52.93614 103.02667,-103.73831 1.27538,-5.93818 1.42165,-1.10559 1.49428,49.36891 l 0.0805,55.95143 -55.44508,-0.10168 c -49.33582,-0.0905 -54.75216,-0.2536 -49.15638,-1.48035 z"
     id="path842" />
  <path
     style="fill:#ffffff;fill-opacity:0.999991;stroke:none;stroke-width:1.0127;stroke-opacity:1"
     d="m 0.71916336,453.87462 c 0.0852792,-51.05003 0.23884668,-56.24094 1.47915104,-49.99849 3.3519707,16.87046 12.2028376,37.17485 22.5560726,51.74491 11.613335,16.34339 31.224977,33.18905 49.205299,42.26549 8.482964,4.28219 17.702532,7.67861 28.440224,10.47718 l 9.11426,2.37546 -55.445082,0.0498 -55.44508349,0.0498 z"
     id="path844" />
  <rect
     style="fill:none;fill-opacity:0.999991;stroke-width:4.32008;stroke:#ffffff;stroke-opacity:1"
     id="rect833"
     width="512"
     height="512"
     x="0"
     y="0" />
</svg>
