<svg id="Layer_1" enable-background="new 0 0 512.5 512.5" height="512" viewBox="0 0 512.5 512.5" width="512" xmlns="http://www.w3.org/2000/svg"><g><path d="m25.161 233.322c2.181 1.926 4.473 3.692 6.842 5.328 12.196-17.591 32.519-29.142 55.497-29.142h226c34.639 0 63.268 26.229 67.071 59.868h56.563c3.316-5.55 5.93-11.569 7.684-17.951 15.808-1.165 30.96-7.45 43.021-18.102 15.672-13.843 24.661-33.779 24.661-54.697 0-20.93-8.998-40.874-24.686-54.718-12.108-10.685-27.322-16.969-43.189-18.096-3.629-12.755-10.703-24.348-20.615-33.53-13.53-12.535-31.145-19.438-49.598-19.438-14.554 0-28.673 4.417-40.558 12.347-5.467-10.061-12.888-19.063-21.865-26.365-15.618-12.704-35.325-19.7-55.49-19.7s-39.872 6.996-55.49 19.7c-8.977 7.302-16.397 16.304-21.865 26.365-11.885-7.93-26.004-12.347-40.558-12.347-18.454 0-36.068 6.903-49.598 19.438-9.91 9.181-16.982 20.771-20.612 33.522-37.871 2.637-67.876 34.291-67.876 72.821 0 20.918 8.988 40.854 24.661 54.697z" style="stroke:#fffffa;stroke-opacity:1;stroke-width:4"/><path d="m474.5 299.376h-131.024c4.725-6.298 7.525-14.074 7.525-22.368 0-20.678-16.822-37.5-37.5-37.5h-226c-20.677 0-37.5 16.822-37.5 37.5s16.822 37.5 37.5 37.5h44.024c-4.725 6.298-7.525 14.074-7.525 22.368 0 8.435 2.8 16.229 7.518 22.5h-94.018c-20.678 0-37.5 16.822-37.5 37.5s16.822 37.5 37.5 37.5h201.122c-4.314 6.15-6.8 13.601-6.8 21.5 0 20.678 16.822 37.5 37.5 37.5h134.152c20.678 0 37.5-16.822 37.5-37.5 0-20.677-16.822-37.5-37.5-37.5h-54.122c4.314-6.15 6.8-13.601 6.8-21.5 0-8.434-2.8-16.228-7.518-22.5h125.866c20.678 0 37.5-16.822 37.5-37.5s-16.822-37.5-37.5-37.5z" style="stroke:#fffffa;stroke-opacity:1;stroke-width:4"/></g></svg>
