<svg id="Layer_1" enable-background="new 0 0 510 510" height="512" viewBox="0 0 510 510" width="512" xmlns="http://www.w3.org/2000/svg"><g id="XMLID_12_"><path id="XMLID_20_" d="m405 135v-52.5c0-45.491-37.01-82.5-82.5-82.5-21.774 0-42.314 8.409-57.833 23.677-10.799 10.625-18.321 23.733-22.021 38.055-5.773-1.152-11.667-1.732-17.646-1.732-44.517 0-81.588 32.489-88.75 75h-31.25c-57.897 0-105 47.103-105 105s47.103 105 105 105h35.817l45.867-120h140.902l-38.047 90h90.997l-16.364 30h40.828c57.897 0 105-47.103 105-105s-47.103-105-105-105z" style="stroke:#fffffa;stroke-opacity:1;stroke-width:4"/><path id="XMLID_123_" d="m282.333 255h-75l-57.333 150h75l-30 105h45l90-165h-85.714z" style="stroke:#fffffa;stroke-opacity:1;stroke-width:4"/></g></svg>
