<?xml version="1.0" encoding="UTF-8" standalone="no"?>
<svg
   xmlns:dc="http://purl.org/dc/elements/1.1/"
   xmlns:cc="http://creativecommons.org/ns#"
   xmlns:rdf="http://www.w3.org/1999/02/22-rdf-syntax-ns#"
   xmlns:svg="http://www.w3.org/2000/svg"
   xmlns="http://www.w3.org/2000/svg"
   xmlns:sodipodi="http://sodipodi.sourceforge.net/DTD/sodipodi-0.dtd"
   xmlns:inkscape="http://www.inkscape.org/namespaces/inkscape"
   height="512pt"
   viewBox="0 0 512 512"
   width="512pt"
   version="1.1"
   id="svg6"
   sodipodi:docname="running.svg"
   inkscape:version="1.0.2 (e86c870879, 2021-01-15)">
  <metadata
     id="metadata12">
    <rdf:RDF>
      <cc:Work
         rdf:about="">
        <dc:format>image/svg+xml</dc:format>
        <dc:type
           rdf:resource="http://purl.org/dc/dcmitype/StillImage" />
      </cc:Work>
    </rdf:RDF>
  </metadata>
  <defs
     id="defs10" />
  <sodipodi:namedview
     pagecolor="#ffffff"
     bordercolor="#666666"
     borderopacity="1"
     objecttolerance="10"
     gridtolerance="10"
     guidetolerance="10"
     inkscape:pageopacity="0"
     inkscape:pageshadow="2"
     inkscape:window-width="1920"
     inkscape:window-height="1002"
     id="namedview8"
     showgrid="false"
     inkscape:zoom="1.0473633"
     inkscape:cx="341.33333"
     inkscape:cy="341.33333"
     inkscape:window-x="1680"
     inkscape:window-y="0"
     inkscape:window-maximized="1"
     inkscape:current-layer="svg6" />
  <path
     d="m412.4375 241.769531h-142.230469v-142.207031c.023438-7.851562-6.355469-14.230469-14.207031-14.230469-94.101562 0-170.667969 76.566407-170.667969 170.667969s76.566407 170.667969 170.667969 170.667969 170.667969-76.566407 170.667969-170.667969c0-7.851562-6.378907-14.230469-14.230469-14.230469zm0 0"
     id="path2" />
  <path
     d="m256 512c-141.164062 0-256-114.835938-256-256s114.835938-256 256-256 256 114.835938 256 256-114.835938 256-256 256zm0-469.332031c-117.632812 0-213.332031 95.699219-213.332031 213.332031s95.699219 213.332031 213.332031 213.332031 213.332031-95.699219 213.332031-213.332031-95.699219-213.332031-213.332031-213.332031zm0 0"
     id="path4" />
  <path
     style="fill:#ffffff;fill-opacity:0.999991;stroke-width:0.954779"
     d="M 308.87086,623.52728 C 242.82988,615.1371 186.07349,587.38939 139.87506,540.90672 94.416345,495.16831 66.77102,437.60324 59.165186,372.84688 56.390886,349.22638 57.639395,313.61102 62.077289,289.77529 82.145758,181.98844 163.59535,94.312863 269.18702,66.834138 c 25.72127,-6.693591 44.62435,-9.070035 72.14631,-9.070035 54.59283,0 103.58739,13.890227 149.7765,42.462457 64.34068,39.80066 110.94994,105.63119 127.44409,180.00095 5.11819,23.07723 5.87125,30.91483 5.87125,61.10582 0,30.191 -0.75306,38.02859 -5.87125,61.10583 -14.72331,66.38531 -52.39654,124.75181 -107.09493,165.92036 -38.03404,28.62618 -80.57019,46.3613 -130.02496,54.21289 -13.58506,2.15681 -58.4549,2.74726 -72.56317,0.95487 z m 50.60327,-54.98348 c 53.12509,-4.67039 100.5121,-25.85781 138.63682,-61.98653 43.68228,-41.39535 70.29409,-100.964 70.82668,-158.54049 0.099,-10.70213 -0.11343,-12.3537 -2.05672,-15.99147 -1.19192,-2.23121 -3.95314,-5.23876 -6.13606,-6.68345 l -3.96893,-2.62671 -98.16032,-0.25188 -98.16032,-0.25189 -0.25188,-98.16031 -0.25188,-98.16032 -2.62672,-3.96894 c -1.44468,-2.18291 -4.45223,-4.94414 -6.68345,-6.13605 -3.63949,-1.94422 -5.28426,-2.15528 -15.99147,-2.05207 -57.74218,0.55659 -117.06857,27.07793 -158.63551,70.91661 -53.92259,56.8696 -74.7409,136.40444 -55.6319,212.53758 18.55447,73.92377 74.39808,134.69472 146.60079,159.53605 30.30791,10.42743 62.1061,14.49108 92.49087,11.81987 z"
     id="path839"
     transform="scale(0.74999998)" />
</svg>
